<svg width="70" height="32" viewBox="0 0 70 32" fill="none" xmlns="http://www.w3.org/2000/svg">
<path d="M31.36 12.124V21H32.69V12.124H36.022V11.004H28.028V12.124H31.36ZM42.5445 21L44.8545 13.762H43.6225L41.9985 19.684H41.9705L40.4585 13.762H39.1565L37.7005 19.684H37.6725L36.0345 13.762H34.7185L37.0425 21H38.3305L39.7865 15.246H39.8145L41.2845 21H42.5445ZM47.2458 12.46V11.004H46.0558V12.46H47.2458ZM46.0558 13.762V21H47.2458V13.762H46.0558ZM50.7414 13.762V11.592H49.5514V13.762H48.3194V14.812H49.5514V19.418C49.5514 19.754 49.584 20.0247 49.6494 20.23C49.7147 20.4353 49.8127 20.594 49.9434 20.706C50.0834 20.818 50.2607 20.8973 50.4754 20.944C50.6994 20.9813 50.9654 21 51.2734 21H52.1834V19.95H51.6374C51.4507 19.95 51.2967 19.9453 51.1754 19.936C51.0634 19.9173 50.9747 19.8847 50.9094 19.838C50.844 19.7913 50.7974 19.726 50.7694 19.642C50.7507 19.558 50.7414 19.446 50.7414 19.306V14.812H52.1834V13.762H50.7414ZM55.1574 13.762V11.592H53.9674V13.762H52.7354V14.812H53.9674V19.418C53.9674 19.754 54 20.0247 54.0654 20.23C54.1307 20.4353 54.2287 20.594 54.3594 20.706C54.4994 20.818 54.6767 20.8973 54.8914 20.944C55.1154 20.9813 55.3814 21 55.6894 21H56.5994V19.95H56.0534C55.8667 19.95 55.7127 19.9453 55.5914 19.936C55.4794 19.9173 55.3907 19.8847 55.3254 19.838C55.26 19.7913 55.2134 19.726 55.1854 19.642C55.1667 19.558 55.1574 19.446 55.1574 19.306V14.812H56.5994V13.762H55.1574ZM62.9474 16.688H58.7894C58.8081 16.408 58.8687 16.1467 58.9714 15.904C59.0741 15.652 59.2141 15.4327 59.3914 15.246C59.5687 15.0593 59.7787 14.9147 60.0214 14.812C60.2734 14.7 60.5534 14.644 60.8614 14.644C61.1601 14.644 61.4307 14.7 61.6734 14.812C61.9254 14.9147 62.1401 15.0593 62.3174 15.246C62.5041 15.4233 62.6487 15.638 62.7514 15.89C62.8634 16.142 62.9287 16.408 62.9474 16.688ZM64.0954 18.704H62.9194C62.8167 19.18 62.6021 19.5347 62.2754 19.768C61.9581 20.0013 61.5474 20.118 61.0434 20.118C60.6514 20.118 60.3107 20.0527 60.0214 19.922C59.7321 19.7913 59.4941 19.6187 59.3074 19.404C59.1207 19.18 58.9854 18.928 58.9014 18.648C58.8174 18.3587 58.7801 18.0553 58.7894 17.738H64.2074C64.2261 17.2993 64.1841 16.8373 64.0814 16.352C63.9881 15.8667 63.8107 15.4187 63.5494 15.008C63.2974 14.5973 62.9567 14.2613 62.5274 14C62.1074 13.7293 61.5754 13.594 60.9314 13.594C60.4367 13.594 59.9794 13.6873 59.5594 13.874C59.1487 14.0607 58.7894 14.322 58.4814 14.658C58.1827 14.994 57.9494 15.3907 57.7814 15.848C57.6134 16.3053 57.5294 16.8093 57.5294 17.36C57.5481 17.9107 57.6274 18.4193 57.7674 18.886C57.9167 19.3527 58.1361 19.754 58.4254 20.09C58.7147 20.426 59.0694 20.6873 59.4894 20.874C59.9187 21.0607 60.4227 21.154 61.0014 21.154C61.8227 21.154 62.5041 20.9487 63.0454 20.538C63.5867 20.1273 63.9367 19.516 64.0954 18.704ZM65.3989 13.762V21H66.5889V17.78C66.5889 17.3133 66.6356 16.9027 66.7289 16.548C66.8223 16.184 66.9716 15.876 67.1769 15.624C67.3823 15.372 67.6529 15.1807 67.9889 15.05C68.3249 14.9193 68.7309 14.854 69.2069 14.854V13.594C68.5629 13.5753 68.0309 13.706 67.6109 13.986C67.1909 14.266 66.8363 14.7 66.5469 15.288H66.5189V13.762H65.3989Z" fill="black"/>
<path fill-rule="evenodd" clip-rule="evenodd" d="M0 16.9942C0 12.5858 3.58297 9 8.01224 9C12.417 9 16 12.5622 16 16.9942C16 21.4027 12.417 25 8.01224 25C3.58297 25 0 21.4027 0 16.9942ZM9.57533 19.7686C8.99618 19.7686 8.63217 19.5192 8.63217 18.7978V16.3912H10.3298V14.652H8.63217V12.279H7.17716C7.10986 13.3239 6.52358 14.5306 5.12261 14.8948V16.3912H6.39511V19.155C6.39511 20.8808 7.4392 21.6023 8.84119 21.6023H10.3971V19.7686H9.57533Z" fill="black"/>
</svg>
