<svg width="91" height="32" viewBox="0 0 91 32" fill="none" xmlns="http://www.w3.org/2000/svg">
<path d="M29.148 11.004V21H30.478V11.004H29.148ZM32.519 13.762V21H33.709V16.912C33.709 16.5853 33.751 16.2867 33.835 16.016C33.9284 15.736 34.0637 15.4933 34.241 15.288C34.4184 15.0827 34.6377 14.924 34.899 14.812C35.1697 14.7 35.487 14.644 35.851 14.644C36.3084 14.644 36.6677 14.7747 36.929 15.036C37.1904 15.2973 37.321 15.652 37.321 16.1V21H38.511V16.24C38.511 15.848 38.469 15.4933 38.385 15.176C38.3104 14.8493 38.175 14.5693 37.979 14.336C37.783 14.1027 37.5264 13.9207 37.209 13.79C36.8917 13.6593 36.495 13.594 36.019 13.594C34.9457 13.594 34.1617 14.0327 33.667 14.91H33.639V13.762H32.519ZM41.0263 18.718H39.8363C39.855 19.166 39.9483 19.5487 40.1163 19.866C40.2843 20.174 40.5083 20.426 40.7883 20.622C41.0683 20.8087 41.3903 20.944 41.7543 21.028C42.1183 21.112 42.501 21.154 42.9023 21.154C43.2663 21.154 43.6303 21.1167 43.9943 21.042C44.3677 20.9767 44.699 20.8553 44.9883 20.678C45.287 20.5007 45.525 20.2673 45.7023 19.978C45.889 19.6887 45.9823 19.3247 45.9823 18.886C45.9823 18.5407 45.9123 18.2513 45.7723 18.018C45.6417 17.7847 45.4643 17.5933 45.2403 17.444C45.0257 17.2853 44.7737 17.1593 44.4843 17.066C44.2043 16.9727 43.915 16.8933 43.6163 16.828C43.3363 16.7627 43.0563 16.702 42.7763 16.646C42.4963 16.5807 42.2443 16.506 42.0203 16.422C41.7963 16.3287 41.6097 16.2167 41.4603 16.086C41.3203 15.946 41.2503 15.7733 41.2503 15.568C41.2503 15.3813 41.297 15.232 41.3903 15.12C41.4837 14.9987 41.605 14.9053 41.7543 14.84C41.9037 14.7653 42.067 14.714 42.2443 14.686C42.431 14.658 42.613 14.644 42.7903 14.644C42.9863 14.644 43.1777 14.6673 43.3643 14.714C43.5603 14.7513 43.7377 14.8167 43.8963 14.91C44.055 15.0033 44.1857 15.1293 44.2883 15.288C44.391 15.4373 44.4517 15.6287 44.4703 15.862H45.6603C45.6323 15.4233 45.539 15.0593 45.3803 14.77C45.2217 14.4713 45.007 14.238 44.7363 14.07C44.475 13.8927 44.1717 13.7713 43.8263 13.706C43.481 13.6313 43.103 13.594 42.6923 13.594C42.375 13.594 42.053 13.636 41.7263 13.72C41.409 13.7947 41.1197 13.916 40.8583 14.084C40.6063 14.2427 40.3963 14.4527 40.2283 14.714C40.0697 14.9753 39.9903 15.288 39.9903 15.652C39.9903 16.1187 40.107 16.4827 40.3403 16.744C40.5737 17.0053 40.863 17.2107 41.2083 17.36C41.563 17.5 41.9457 17.612 42.3563 17.696C42.767 17.7707 43.145 17.8593 43.4903 17.962C43.845 18.0553 44.139 18.1813 44.3723 18.34C44.6057 18.4987 44.7223 18.732 44.7223 19.04C44.7223 19.264 44.6663 19.4507 44.5543 19.6C44.4423 19.74 44.2977 19.8473 44.1203 19.922C43.9523 19.9967 43.7657 20.048 43.5603 20.076C43.355 20.104 43.159 20.118 42.9723 20.118C42.7297 20.118 42.4917 20.0947 42.2583 20.048C42.0343 20.0013 41.829 19.9267 41.6423 19.824C41.465 19.712 41.3203 19.5673 41.2083 19.39C41.0963 19.2033 41.0357 18.9793 41.0263 18.718ZM48.9503 13.762V11.592H47.7603V13.762H46.5283V14.812H47.7603V19.418C47.7603 19.754 47.793 20.0247 47.8583 20.23C47.9237 20.4353 48.0217 20.594 48.1523 20.706C48.2923 20.818 48.4697 20.8973 48.6843 20.944C48.9083 20.9813 49.1743 21 49.4823 21H50.3923V19.95H49.8463C49.6597 19.95 49.5057 19.9453 49.3843 19.936C49.2723 19.9173 49.1837 19.8847 49.1183 19.838C49.053 19.7913 49.0063 19.726 48.9783 19.642C48.9597 19.558 48.9503 19.446 48.9503 19.306V14.812H50.3923V13.762H48.9503ZM58.1264 20.972C57.921 21.0933 57.6364 21.154 57.2724 21.154C56.9644 21.154 56.717 21.07 56.5304 20.902C56.353 20.7247 56.2644 20.44 56.2644 20.048C55.9377 20.44 55.555 20.7247 55.1164 20.902C54.687 21.07 54.2204 21.154 53.7164 21.154C53.3897 21.154 53.077 21.1167 52.7784 21.042C52.489 20.9673 52.237 20.8507 52.0224 20.692C51.8077 20.5333 51.635 20.328 51.5044 20.076C51.383 19.8147 51.3224 19.502 51.3224 19.138C51.3224 18.7273 51.3924 18.3913 51.5324 18.13C51.6724 17.8687 51.8544 17.6587 52.0784 17.5C52.3117 17.332 52.573 17.206 52.8624 17.122C53.161 17.038 53.4644 16.968 53.7724 16.912C54.099 16.8467 54.407 16.8 54.6964 16.772C54.995 16.7347 55.2564 16.688 55.4804 16.632C55.7044 16.5667 55.8817 16.478 56.0124 16.366C56.143 16.2447 56.2084 16.072 56.2084 15.848C56.2084 15.5867 56.157 15.3767 56.0544 15.218C55.961 15.0593 55.835 14.938 55.6764 14.854C55.527 14.77 55.3544 14.714 55.1584 14.686C54.9717 14.658 54.785 14.644 54.5984 14.644C54.0944 14.644 53.6744 14.742 53.3384 14.938C53.0024 15.1247 52.8204 15.484 52.7924 16.016H51.6024C51.621 15.568 51.7144 15.19 51.8824 14.882C52.0504 14.574 52.2744 14.3267 52.5544 14.14C52.8344 13.944 53.1517 13.804 53.5064 13.72C53.8704 13.636 54.2577 13.594 54.6684 13.594C54.995 13.594 55.317 13.6173 55.6344 13.664C55.961 13.7107 56.255 13.8087 56.5164 13.958C56.7777 14.098 56.9877 14.2987 57.1464 14.56C57.305 14.8213 57.3844 15.162 57.3844 15.582V19.306C57.3844 19.586 57.3984 19.7913 57.4264 19.922C57.4637 20.0527 57.5757 20.118 57.7624 20.118C57.865 20.118 57.9864 20.0947 58.1264 20.048V20.972ZM56.1944 17.262C56.045 17.374 55.849 17.458 55.6064 17.514C55.3637 17.5607 55.107 17.6027 54.8364 17.64C54.575 17.668 54.309 17.7053 54.0384 17.752C53.7677 17.7893 53.525 17.8547 53.3104 17.948C53.0957 18.0413 52.9184 18.1767 52.7784 18.354C52.6477 18.522 52.5824 18.7553 52.5824 19.054C52.5824 19.25 52.6197 19.418 52.6944 19.558C52.7784 19.6887 52.881 19.796 53.0024 19.88C53.133 19.964 53.2824 20.0247 53.4504 20.062C53.6184 20.0993 53.7957 20.118 53.9824 20.118C54.3744 20.118 54.7104 20.0667 54.9904 19.964C55.2704 19.852 55.499 19.7167 55.6764 19.558C55.8537 19.39 55.9844 19.2127 56.0684 19.026C56.1524 18.83 56.1944 18.648 56.1944 18.48V17.262ZM65.4779 20.384V13.762H64.3579V14.798H64.3439C64.1292 14.3967 63.8306 14.098 63.4479 13.902C63.0652 13.6967 62.6452 13.594 62.1879 13.594C61.5626 13.594 61.0352 13.7153 60.6059 13.958C60.1766 14.1913 59.8312 14.4947 59.5699 14.868C59.3086 15.232 59.1219 15.6427 59.0099 16.1C58.8979 16.548 58.8419 16.9867 58.8419 17.416C58.8419 17.9107 58.9072 18.382 59.0379 18.83C59.1779 19.2687 59.3832 19.656 59.6539 19.992C59.9246 20.3187 60.2606 20.58 60.6619 20.776C61.0632 20.972 61.5346 21.07 62.0759 21.07C62.5426 21.07 62.9812 20.9673 63.3919 20.762C63.8119 20.5473 64.1246 20.216 64.3299 19.768H64.3579V20.244C64.3579 20.6453 64.3159 21.014 64.2319 21.35C64.1572 21.686 64.0312 21.9707 63.8539 22.204C63.6766 22.4467 63.4526 22.6333 63.1819 22.764C62.9112 22.904 62.5799 22.974 62.1879 22.974C61.9919 22.974 61.7866 22.9507 61.5719 22.904C61.3572 22.8667 61.1566 22.8013 60.9699 22.708C60.7926 22.6147 60.6386 22.4933 60.5079 22.344C60.3866 22.1947 60.3212 22.0127 60.3119 21.798H59.1219C59.1406 22.19 59.2432 22.5213 59.4299 22.792C59.6166 23.0627 59.8499 23.282 60.1299 23.45C60.4192 23.618 60.7366 23.7393 61.0819 23.814C61.4366 23.8887 61.7819 23.926 62.1179 23.926C63.2752 23.926 64.1246 23.632 64.6659 23.044C65.2072 22.456 65.4779 21.5693 65.4779 20.384ZM62.1459 20.034C61.7539 20.034 61.4272 19.9547 61.1659 19.796C60.9046 19.628 60.6946 19.4133 60.5359 19.152C60.3772 18.8813 60.2652 18.5827 60.1999 18.256C60.1346 17.9293 60.1019 17.6027 60.1019 17.276C60.1019 16.9307 60.1392 16.5993 60.2139 16.282C60.2979 15.9647 60.4239 15.6847 60.5919 15.442C60.7692 15.1993 60.9932 15.008 61.2639 14.868C61.5346 14.7187 61.8612 14.644 62.2439 14.644C62.6172 14.644 62.9346 14.7187 63.1959 14.868C63.4572 15.0173 63.6672 15.218 63.8259 15.47C63.9939 15.7127 64.1152 15.988 64.1899 16.296C64.2646 16.604 64.3019 16.9167 64.3019 17.234C64.3019 17.57 64.2599 17.906 64.1759 18.242C64.1012 18.578 63.9799 18.8813 63.8119 19.152C63.6439 19.4133 63.4199 19.628 63.1399 19.796C62.8692 19.9547 62.5379 20.034 62.1459 20.034ZM67.231 13.762V21H68.421V17.78C68.421 17.3133 68.4676 16.9027 68.561 16.548C68.6543 16.184 68.8036 15.876 69.009 15.624C69.2143 15.372 69.485 15.1807 69.821 15.05C70.157 14.9193 70.563 14.854 71.039 14.854V13.594C70.395 13.5753 69.863 13.706 69.443 13.986C69.023 14.266 68.6683 14.7 68.379 15.288H68.351V13.762H67.231ZM78.3471 20.972C78.1417 21.0933 77.8571 21.154 77.4931 21.154C77.1851 21.154 76.9377 21.07 76.7511 20.902C76.5737 20.7247 76.4851 20.44 76.4851 20.048C76.1584 20.44 75.7757 20.7247 75.3371 20.902C74.9077 21.07 74.4411 21.154 73.9371 21.154C73.6104 21.154 73.2977 21.1167 72.9991 21.042C72.7097 20.9673 72.4577 20.8507 72.2431 20.692C72.0284 20.5333 71.8557 20.328 71.7251 20.076C71.6037 19.8147 71.5431 19.502 71.5431 19.138C71.5431 18.7273 71.6131 18.3913 71.7531 18.13C71.8931 17.8687 72.0751 17.6587 72.2991 17.5C72.5324 17.332 72.7937 17.206 73.0831 17.122C73.3817 17.038 73.6851 16.968 73.9931 16.912C74.3197 16.8467 74.6277 16.8 74.9171 16.772C75.2157 16.7347 75.4771 16.688 75.7011 16.632C75.9251 16.5667 76.1024 16.478 76.2331 16.366C76.3637 16.2447 76.4291 16.072 76.4291 15.848C76.4291 15.5867 76.3777 15.3767 76.2751 15.218C76.1817 15.0593 76.0557 14.938 75.8971 14.854C75.7477 14.77 75.5751 14.714 75.3791 14.686C75.1924 14.658 75.0057 14.644 74.8191 14.644C74.3151 14.644 73.8951 14.742 73.5591 14.938C73.2231 15.1247 73.0411 15.484 73.0131 16.016H71.8231C71.8417 15.568 71.9351 15.19 72.1031 14.882C72.2711 14.574 72.4951 14.3267 72.7751 14.14C73.0551 13.944 73.3724 13.804 73.7271 13.72C74.0911 13.636 74.4784 13.594 74.8891 13.594C75.2157 13.594 75.5377 13.6173 75.8551 13.664C76.1817 13.7107 76.4757 13.8087 76.7371 13.958C76.9984 14.098 77.2084 14.2987 77.3671 14.56C77.5257 14.8213 77.6051 15.162 77.6051 15.582V19.306C77.6051 19.586 77.6191 19.7913 77.6471 19.922C77.6844 20.0527 77.7964 20.118 77.9831 20.118C78.0857 20.118 78.2071 20.0947 78.3471 20.048V20.972ZM76.4151 17.262C76.2657 17.374 76.0697 17.458 75.8271 17.514C75.5844 17.5607 75.3277 17.6027 75.0571 17.64C74.7957 17.668 74.5297 17.7053 74.2591 17.752C73.9884 17.7893 73.7457 17.8547 73.5311 17.948C73.3164 18.0413 73.1391 18.1767 72.9991 18.354C72.8684 18.522 72.8031 18.7553 72.8031 19.054C72.8031 19.25 72.8404 19.418 72.9151 19.558C72.9991 19.6887 73.1017 19.796 73.2231 19.88C73.3537 19.964 73.5031 20.0247 73.6711 20.062C73.8391 20.0993 74.0164 20.118 74.2031 20.118C74.5951 20.118 74.9311 20.0667 75.2111 19.964C75.4911 19.852 75.7197 19.7167 75.8971 19.558C76.0744 19.39 76.2051 19.2127 76.2891 19.026C76.3731 18.83 76.4151 18.648 76.4151 18.48V17.262ZM79.4546 13.762V21H80.6446V16.492C80.6446 16.352 80.6773 16.1793 80.7426 15.974C80.8173 15.7593 80.9293 15.554 81.0786 15.358C81.2373 15.162 81.4379 14.994 81.6806 14.854C81.9326 14.714 82.2313 14.644 82.5766 14.644C82.8473 14.644 83.0666 14.686 83.2346 14.77C83.4119 14.8447 83.5519 14.9567 83.6546 15.106C83.7573 15.246 83.8273 15.414 83.8646 15.61C83.9113 15.806 83.9346 16.0207 83.9346 16.254V21H85.1246V16.492C85.1246 15.932 85.2926 15.484 85.6286 15.148C85.9646 14.812 86.4266 14.644 87.0146 14.644C87.3039 14.644 87.5373 14.686 87.7146 14.77C87.9013 14.854 88.0459 14.9707 88.1486 15.12C88.2513 15.26 88.3213 15.428 88.3586 15.624C88.3959 15.82 88.4146 16.03 88.4146 16.254V21H89.6046V15.694C89.6046 15.3207 89.5439 15.0033 89.4226 14.742C89.3106 14.4713 89.1473 14.252 88.9326 14.084C88.7273 13.916 88.4753 13.7947 88.1766 13.72C87.8873 13.636 87.5606 13.594 87.1966 13.594C86.7206 13.594 86.2819 13.7013 85.8806 13.916C85.4886 14.1307 85.1713 14.434 84.9286 14.826C84.7793 14.378 84.5226 14.0607 84.1586 13.874C83.7946 13.6873 83.3886 13.594 82.9406 13.594C81.9233 13.594 81.1439 14.0047 80.6026 14.826H80.5746V13.762H79.4546Z" fill="black"/>
<path fill-rule="evenodd" clip-rule="evenodd" d="M4.70161 9.04814C5.5549 9.00921 5.82733 9 8.00002 9C10.1727 9 10.4451 9.00921 11.2984 9.04814C12.1499 9.08698 12.7314 9.22223 13.2403 9.42001C13.7664 9.62442 14.2125 9.89797 14.6573 10.3427C15.102 10.7875 15.3756 11.2336 15.58 11.7597C15.7778 12.2686 15.913 12.8501 15.9519 13.7016C15.9908 14.5549 16 14.8273 16 17C16 19.1727 15.9908 19.4451 15.9519 20.2984C15.913 21.1499 15.7778 21.7314 15.58 22.2403C15.3756 22.7664 15.102 23.2125 14.6573 23.6573C14.2125 24.102 13.7664 24.3756 13.2403 24.58C12.7314 24.7778 12.1499 24.913 11.2984 24.9519C10.4451 24.9908 10.1727 25 8.00002 25C5.82733 25 5.5549 24.9908 4.70161 24.9519C3.8501 24.913 3.26855 24.7778 2.7597 24.58C2.23363 24.3756 1.78748 24.102 1.34271 23.6573C0.897966 23.2125 0.624419 22.7664 0.420006 22.2403C0.222229 21.7314 0.0869798 21.1499 0.0481422 20.2984C0.00920926 19.4451 0 19.1727 0 17C0 14.8273 0.00920926 14.5549 0.0481422 13.7016C0.0869798 12.8501 0.222229 12.2686 0.420006 11.7597C0.624419 11.2336 0.897966 10.7875 1.34271 10.3427C1.78748 9.89797 2.23363 9.62442 2.7597 9.42001C3.26855 9.22223 3.8501 9.08698 4.70161 9.04814ZM12.7182 10.7635C12.4363 10.654 12.0127 10.5237 11.2327 10.4881C10.3891 10.4496 10.1361 10.4414 8.00002 10.4414C5.86391 10.4414 5.61088 10.4496 4.76731 10.4881C3.98732 10.5237 3.56373 10.654 3.28183 10.7635C2.90841 10.9087 2.64191 11.082 2.36198 11.362C2.08202 11.6419 1.90867 11.9084 1.76354 12.2818C1.65398 12.5637 1.52366 12.9873 1.48809 13.7673C1.4496 14.6109 1.44144 14.8639 1.44144 17C1.44144 19.1361 1.4496 19.3891 1.48809 20.2327C1.52366 21.0127 1.65398 21.4363 1.76354 21.7182C1.90867 22.0916 2.08205 22.3581 2.36198 22.638C2.64191 22.918 2.90841 23.0913 3.28183 23.2365C3.56373 23.346 3.98732 23.4763 4.76731 23.5119C5.61079 23.5504 5.86375 23.5586 8.00002 23.5586C10.1362 23.5586 10.3892 23.5504 11.2327 23.5119C12.0127 23.4763 12.4363 23.346 12.7182 23.2365C13.0916 23.0913 13.3581 22.918 13.638 22.638C13.918 22.3581 14.0913 22.0916 14.2365 21.7182C14.346 21.4363 14.4763 21.0127 14.5119 20.2327C14.5504 19.3891 14.5586 19.1361 14.5586 17C14.5586 14.8639 14.5504 14.6109 14.5119 13.7673C14.4763 12.9873 14.346 12.5637 14.2365 12.2818C14.0913 11.9084 13.918 11.6419 13.638 11.362C13.3581 11.082 13.0916 10.9087 12.7182 10.7635ZM8.00002 12.8919C5.73114 12.8919 3.89189 14.7311 3.89189 17C3.89189 19.2689 5.73114 21.1081 8.00002 21.1081C10.2689 21.1081 12.1081 19.2689 12.1081 17C12.1081 14.7311 10.2689 12.8919 8.00002 12.8919ZM5.33333 17C5.33333 18.4728 6.52723 19.6667 8.00002 19.6667C9.47277 19.6667 10.6667 18.4728 10.6667 17C10.6667 15.5272 9.47277 14.3333 8.00002 14.3333C6.52723 14.3333 5.33333 15.5272 5.33333 17ZM12.2704 13.6896C12.8006 13.6896 13.2304 13.2598 13.2304 12.7296C13.2304 12.1994 12.8006 11.7696 12.2704 11.7696C11.7402 11.7696 11.3104 12.1994 11.3104 12.7296C11.3104 13.2598 11.7402 13.6896 12.2704 13.6896Z" fill="black"/>
</svg>
