<svg width="91" height="32" viewBox="0 0 91 32" fill="none" xmlns="http://www.w3.org/2000/svg">
<path d="M29.092 11.004V21H30.422V16.422H35.014V15.302H30.422V12.124H35.658V11.004H29.092ZM43.3471 20.972C43.1417 21.0933 42.8571 21.154 42.4931 21.154C42.1851 21.154 41.9377 21.07 41.7511 20.902C41.5737 20.7247 41.4851 20.44 41.4851 20.048C41.1584 20.44 40.7757 20.7247 40.3371 20.902C39.9077 21.07 39.4411 21.154 38.9371 21.154C38.6104 21.154 38.2977 21.1167 37.9991 21.042C37.7097 20.9673 37.4577 20.8507 37.2431 20.692C37.0284 20.5333 36.8557 20.328 36.7251 20.076C36.6037 19.8147 36.5431 19.502 36.5431 19.138C36.5431 18.7273 36.6131 18.3913 36.7531 18.13C36.8931 17.8687 37.0751 17.6587 37.2991 17.5C37.5324 17.332 37.7937 17.206 38.0831 17.122C38.3817 17.038 38.6851 16.968 38.9931 16.912C39.3197 16.8467 39.6277 16.8 39.9171 16.772C40.2157 16.7347 40.4771 16.688 40.7011 16.632C40.9251 16.5667 41.1024 16.478 41.2331 16.366C41.3637 16.2447 41.4291 16.072 41.4291 15.848C41.4291 15.5867 41.3777 15.3767 41.2751 15.218C41.1817 15.0593 41.0557 14.938 40.8971 14.854C40.7477 14.77 40.5751 14.714 40.3791 14.686C40.1924 14.658 40.0057 14.644 39.8191 14.644C39.3151 14.644 38.8951 14.742 38.5591 14.938C38.2231 15.1247 38.0411 15.484 38.0131 16.016H36.8231C36.8417 15.568 36.9351 15.19 37.1031 14.882C37.2711 14.574 37.4951 14.3267 37.7751 14.14C38.0551 13.944 38.3724 13.804 38.7271 13.72C39.0911 13.636 39.4784 13.594 39.8891 13.594C40.2157 13.594 40.5377 13.6173 40.8551 13.664C41.1817 13.7107 41.4757 13.8087 41.7371 13.958C41.9984 14.098 42.2084 14.2987 42.3671 14.56C42.5257 14.8213 42.6051 15.162 42.6051 15.582V19.306C42.6051 19.586 42.6191 19.7913 42.6471 19.922C42.6844 20.0527 42.7964 20.118 42.9831 20.118C43.0857 20.118 43.2071 20.0947 43.3471 20.048V20.972ZM41.4151 17.262C41.2657 17.374 41.0697 17.458 40.8271 17.514C40.5844 17.5607 40.3277 17.6027 40.0571 17.64C39.7957 17.668 39.5297 17.7053 39.2591 17.752C38.9884 17.7893 38.7457 17.8547 38.5311 17.948C38.3164 18.0413 38.1391 18.1767 37.9991 18.354C37.8684 18.522 37.8031 18.7553 37.8031 19.054C37.8031 19.25 37.8404 19.418 37.9151 19.558C37.9991 19.6887 38.1017 19.796 38.2231 19.88C38.3537 19.964 38.5031 20.0247 38.6711 20.062C38.8391 20.0993 39.0164 20.118 39.2031 20.118C39.5951 20.118 39.9311 20.0667 40.2111 19.964C40.4911 19.852 40.7197 19.7167 40.8971 19.558C41.0744 19.39 41.2051 19.2127 41.2891 19.026C41.3731 18.83 41.4151 18.648 41.4151 18.48V17.262ZM49.3686 16.086H50.6006C50.5539 15.6567 50.4419 15.288 50.2646 14.98C50.0873 14.6627 49.8586 14.4013 49.5786 14.196C49.3079 13.9907 48.9906 13.8413 48.6266 13.748C48.2719 13.6453 47.8893 13.594 47.4786 13.594C46.9093 13.594 46.4099 13.6967 45.9806 13.902C45.5513 14.098 45.1919 14.3733 44.9026 14.728C44.6226 15.0733 44.4126 15.484 44.2726 15.96C44.1326 16.4267 44.0626 16.9307 44.0626 17.472C44.0626 18.0133 44.1326 18.5127 44.2726 18.97C44.4219 19.418 44.6366 19.8053 44.9166 20.132C45.2059 20.4587 45.5606 20.7107 45.9806 20.888C46.4099 21.0653 46.8999 21.154 47.4506 21.154C48.3746 21.154 49.1026 20.9113 49.6346 20.426C50.1759 19.9407 50.5119 19.25 50.6426 18.354H49.4246C49.3499 18.914 49.1446 19.348 48.8086 19.656C48.4819 19.964 48.0246 20.118 47.4366 20.118C47.0633 20.118 46.7413 20.0433 46.4706 19.894C46.1999 19.7447 45.9806 19.5487 45.8126 19.306C45.6446 19.054 45.5186 18.7693 45.4346 18.452C45.3599 18.1347 45.3226 17.808 45.3226 17.472C45.3226 17.108 45.3599 16.758 45.4346 16.422C45.5093 16.0767 45.6306 15.7733 45.7986 15.512C45.9759 15.2507 46.2093 15.0407 46.4986 14.882C46.7879 14.7233 47.1473 14.644 47.5766 14.644C48.0806 14.644 48.4819 14.77 48.7806 15.022C49.0793 15.274 49.2753 15.6287 49.3686 16.086ZM57.0001 16.688H52.8421C52.8608 16.408 52.9215 16.1467 53.0241 15.904C53.1268 15.652 53.2668 15.4327 53.4441 15.246C53.6215 15.0593 53.8315 14.9147 54.0741 14.812C54.3261 14.7 54.6061 14.644 54.9141 14.644C55.2128 14.644 55.4835 14.7 55.7261 14.812C55.9781 14.9147 56.1928 15.0593 56.3701 15.246C56.5568 15.4233 56.7015 15.638 56.8041 15.89C56.9161 16.142 56.9815 16.408 57.0001 16.688ZM58.1481 18.704H56.9721C56.8695 19.18 56.6548 19.5347 56.3281 19.768C56.0108 20.0013 55.6001 20.118 55.0961 20.118C54.7041 20.118 54.3635 20.0527 54.0741 19.922C53.7848 19.7913 53.5468 19.6187 53.3601 19.404C53.1735 19.18 53.0381 18.928 52.9541 18.648C52.8701 18.3587 52.8328 18.0553 52.8421 17.738H58.2601C58.2788 17.2993 58.2368 16.8373 58.1341 16.352C58.0408 15.8667 57.8635 15.4187 57.6021 15.008C57.3501 14.5973 57.0095 14.2613 56.5801 14C56.1601 13.7293 55.6281 13.594 54.9841 13.594C54.4895 13.594 54.0321 13.6873 53.6121 13.874C53.2015 14.0607 52.8421 14.322 52.5341 14.658C52.2355 14.994 52.0021 15.3907 51.8341 15.848C51.6661 16.3053 51.5821 16.8093 51.5821 17.36C51.6008 17.9107 51.6801 18.4193 51.8201 18.886C51.9695 19.3527 52.1888 19.754 52.4781 20.09C52.7675 20.426 53.1221 20.6873 53.5421 20.874C53.9715 21.0607 54.4755 21.154 55.0541 21.154C55.8755 21.154 56.5568 20.9487 57.0981 20.538C57.6395 20.1273 57.9895 19.516 58.1481 18.704ZM59.5357 11.004V21H60.7257V20.034H60.7537C60.8843 20.2487 61.043 20.4307 61.2297 20.58C61.4257 20.72 61.631 20.832 61.8457 20.916C62.0603 21 62.275 21.0607 62.4897 21.098C62.7137 21.1353 62.9143 21.154 63.0917 21.154C63.6423 21.154 64.123 21.056 64.5337 20.86C64.9537 20.664 65.299 20.398 65.5697 20.062C65.8497 19.7167 66.055 19.3153 66.1857 18.858C66.3257 18.4007 66.3957 17.9153 66.3957 17.402C66.3957 16.8887 66.3257 16.4033 66.1857 15.946C66.0457 15.4887 65.8357 15.0873 65.5557 14.742C65.285 14.3873 64.9397 14.1073 64.5197 13.902C64.109 13.6967 63.6237 13.594 63.0637 13.594C62.5597 13.594 62.0977 13.6873 61.6777 13.874C61.2577 14.0513 60.9497 14.3407 60.7537 14.742H60.7257V11.004H59.5357ZM65.1357 17.318C65.1357 17.6727 65.0983 18.018 65.0237 18.354C64.949 18.69 64.8277 18.9887 64.6597 19.25C64.4917 19.5113 64.2677 19.7213 63.9877 19.88C63.717 20.0387 63.3763 20.118 62.9657 20.118C62.555 20.118 62.205 20.0433 61.9157 19.894C61.6263 19.7353 61.3883 19.53 61.2017 19.278C61.0243 19.026 60.8937 18.7367 60.8097 18.41C60.7257 18.074 60.6837 17.7287 60.6837 17.374C60.6837 17.038 60.721 16.7067 60.7957 16.38C60.8797 16.0533 61.0103 15.764 61.1877 15.512C61.365 15.2507 61.5937 15.0407 61.8737 14.882C62.1537 14.7233 62.4943 14.644 62.8957 14.644C63.2783 14.644 63.6097 14.7187 63.8897 14.868C64.179 15.0173 64.4123 15.218 64.5897 15.47C64.7763 15.722 64.9117 16.0113 64.9957 16.338C65.089 16.6553 65.1357 16.982 65.1357 17.318ZM68.6605 17.388C68.6605 16.9493 68.7165 16.562 68.8285 16.226C68.9498 15.8807 69.1132 15.5913 69.3185 15.358C69.5238 15.1247 69.7618 14.9473 70.0325 14.826C70.3125 14.7047 70.6065 14.644 70.9145 14.644C71.2225 14.644 71.5118 14.7047 71.7825 14.826C72.0625 14.9473 72.3052 15.1247 72.5105 15.358C72.7158 15.5913 72.8745 15.8807 72.9865 16.226C73.1078 16.562 73.1685 16.9493 73.1685 17.388C73.1685 17.8267 73.1078 18.2187 72.9865 18.564C72.8745 18.9 72.7158 19.1847 72.5105 19.418C72.3052 19.642 72.0625 19.8147 71.7825 19.936C71.5118 20.0573 71.2225 20.118 70.9145 20.118C70.6065 20.118 70.3125 20.0573 70.0325 19.936C69.7618 19.8147 69.5238 19.642 69.3185 19.418C69.1132 19.1847 68.9498 18.9 68.8285 18.564C68.7165 18.2187 68.6605 17.8267 68.6605 17.388ZM67.4005 17.388C67.4005 17.92 67.4752 18.4147 67.6245 18.872C67.7738 19.3293 67.9978 19.7307 68.2965 20.076C68.5952 20.412 68.9638 20.678 69.4025 20.874C69.8412 21.0607 70.3452 21.154 70.9145 21.154C71.4932 21.154 71.9972 21.0607 72.4265 20.874C72.8652 20.678 73.2338 20.412 73.5325 20.076C73.8312 19.7307 74.0552 19.3293 74.2045 18.872C74.3538 18.4147 74.4285 17.92 74.4285 17.388C74.4285 16.856 74.3538 16.3613 74.2045 15.904C74.0552 15.4373 73.8312 15.036 73.5325 14.7C73.2338 14.3547 72.8652 14.084 72.4265 13.888C71.9972 13.692 71.4932 13.594 70.9145 13.594C70.3452 13.594 69.8412 13.692 69.4025 13.888C68.9638 14.084 68.5952 14.3547 68.2965 14.7C67.9978 15.036 67.7738 15.4373 67.6245 15.904C67.4752 16.3613 67.4005 16.856 67.4005 17.388ZM76.6995 17.388C76.6995 16.9493 76.7555 16.562 76.8675 16.226C76.9889 15.8807 77.1522 15.5913 77.3575 15.358C77.5629 15.1247 77.8009 14.9473 78.0715 14.826C78.3515 14.7047 78.6455 14.644 78.9535 14.644C79.2615 14.644 79.5509 14.7047 79.8215 14.826C80.1015 14.9473 80.3442 15.1247 80.5495 15.358C80.7549 15.5913 80.9135 15.8807 81.0255 16.226C81.1469 16.562 81.2075 16.9493 81.2075 17.388C81.2075 17.8267 81.1469 18.2187 81.0255 18.564C80.9135 18.9 80.7549 19.1847 80.5495 19.418C80.3442 19.642 80.1015 19.8147 79.8215 19.936C79.5509 20.0573 79.2615 20.118 78.9535 20.118C78.6455 20.118 78.3515 20.0573 78.0715 19.936C77.8009 19.8147 77.5629 19.642 77.3575 19.418C77.1522 19.1847 76.9889 18.9 76.8675 18.564C76.7555 18.2187 76.6995 17.8267 76.6995 17.388ZM75.4395 17.388C75.4395 17.92 75.5142 18.4147 75.6635 18.872C75.8129 19.3293 76.0369 19.7307 76.3355 20.076C76.6342 20.412 77.0029 20.678 77.4415 20.874C77.8802 21.0607 78.3842 21.154 78.9535 21.154C79.5322 21.154 80.0362 21.0607 80.4655 20.874C80.9042 20.678 81.2729 20.412 81.5715 20.076C81.8702 19.7307 82.0942 19.3293 82.2435 18.872C82.3929 18.4147 82.4675 17.92 82.4675 17.388C82.4675 16.856 82.3929 16.3613 82.2435 15.904C82.0942 15.4373 81.8702 15.036 81.5715 14.7C81.2729 14.3547 80.9042 14.084 80.4655 13.888C80.0362 13.692 79.5322 13.594 78.9535 13.594C78.3842 13.594 77.8802 13.692 77.4415 13.888C77.0029 14.084 76.6342 14.3547 76.3355 14.7C76.0369 15.036 75.8129 15.4373 75.6635 15.904C75.5142 16.3613 75.4395 16.856 75.4395 17.388ZM83.9406 11.004V21H85.1306V18.256L86.2506 17.22L88.7286 21H90.2406L87.1606 16.394L90.0306 13.762H88.4346L85.1306 16.926V11.004H83.9406Z" fill="black"/>
<path fill-rule="evenodd" clip-rule="evenodd" d="M15.1172 9H0.882759C0.395224 9 0 9.39522 0 9.88276V24.1172C0 24.6048 0.395224 25 0.882759 25H8.55172V18.8124H6.46897V16.3903H8.55172V14.6083C8.55172 12.5421 9.81517 11.4166 11.6579 11.4166C12.2789 11.4152 12.8995 11.4465 13.5172 11.5103V13.6703H12.2483C11.2441 13.6703 11.0483 14.1448 11.0483 14.8455V16.3876H13.4483L13.1366 18.8097H11.0345V25H15.1172C15.6048 25 16 24.6048 16 24.1172V9.88276C16 9.39522 15.6048 9 15.1172 9Z" fill="black"/>
</svg>
