<svg width="104" height="24" viewBox="0 0 104 24" fill="none" xmlns="http://www.w3.org/2000/svg">
<path d="M47.041 4.68586V17.9999H49.036V4.68586H54.034V3.00586H42.043V4.68586H47.041Z" fill="black"/>
<path d="M63.8177 17.9999L67.2827 7.14286H65.4347L62.9987 16.0259H62.9567L60.6887 7.14286H58.7357L56.5517 16.0259H56.5097L54.0527 7.14286H52.0787L55.5647 17.9999H57.4967L59.6807 9.36886H59.7227L61.9277 17.9999H63.8177Z" fill="black"/>
<path d="M70.8697 5.18986V3.00586H69.0847V5.18986H70.8697ZM69.0847 7.14286V17.9999H70.8697V7.14286H69.0847Z" fill="black"/>
<path d="M76.113 7.14286V3.88786H74.328V7.14286H72.48V8.71786H74.328V15.6269C74.328 16.1309 74.377 16.5369 74.475 16.8449C74.573 17.1529 74.72 17.3909 74.916 17.5589C75.126 17.7269 75.392 17.8459 75.714 17.9159C76.05 17.9719 76.449 17.9999 76.911 17.9999H78.276V16.4249H77.457C77.177 16.4249 76.946 16.4179 76.764 16.4039C76.596 16.3759 76.463 16.3269 76.365 16.2569C76.267 16.1869 76.197 16.0889 76.155 15.9629C76.127 15.8369 76.113 15.6689 76.113 15.4589V8.71786H78.276V7.14286H76.113Z" fill="black"/>
<path d="M82.737 7.14286V3.88786H80.952V7.14286H79.104V8.71786H80.952V15.6269C80.952 16.1309 81.001 16.5369 81.099 16.8449C81.197 17.1529 81.344 17.3909 81.54 17.5589C81.75 17.7269 82.016 17.8459 82.338 17.9159C82.674 17.9719 83.073 17.9999 83.535 17.9999H84.9V16.4249H84.081C83.801 16.4249 83.57 16.4179 83.388 16.4039C83.22 16.3759 83.087 16.3269 82.989 16.2569C82.891 16.1869 82.821 16.0889 82.779 15.9629C82.751 15.8369 82.737 15.6689 82.737 15.4589V8.71786H84.9V7.14286H82.737Z" fill="black"/>
<path d="M94.4221 11.5319H88.1851C88.2131 11.1119 88.3041 10.7199 88.4581 10.3559C88.6121 9.97786 88.8221 9.64886 89.0881 9.36886C89.3541 9.08886 89.6691 8.87186 90.0331 8.71786C90.4111 8.54986 90.8311 8.46586 91.2931 8.46586C91.7411 8.46586 92.1471 8.54986 92.5111 8.71786C92.8891 8.87186 93.2111 9.08886 93.4771 9.36886C93.7571 9.63486 93.9741 9.95686 94.1281 10.3349C94.2961 10.7129 94.3941 11.1119 94.4221 11.5319ZM96.1441 14.5559H94.3801C94.2261 15.2699 93.9041 15.8019 93.4141 16.1519C92.9381 16.5019 92.3221 16.6769 91.5661 16.6769C90.9781 16.6769 90.4671 16.5789 90.0331 16.3829C89.5991 16.1869 89.2421 15.9279 88.9621 15.6059C88.6821 15.2699 88.4791 14.8919 88.3531 14.4719C88.2271 14.0379 88.1711 13.5829 88.1851 13.1069H96.3121C96.3401 12.4489 96.2771 11.7559 96.1231 11.0279C95.9831 10.2999 95.7171 9.62786 95.3251 9.01186C94.9471 8.39586 94.4361 7.89186 93.7921 7.49986C93.1621 7.09386 92.3641 6.89086 91.3981 6.89086C90.6561 6.89086 89.9701 7.03086 89.3401 7.31086C88.7241 7.59086 88.1851 7.98286 87.7231 8.48686C87.2751 8.99086 86.9251 9.58586 86.6731 10.2719C86.4211 10.9579 86.2951 11.7139 86.2951 12.5399C86.3231 13.3659 86.4421 14.1289 86.6521 14.8289C86.8761 15.5289 87.2051 16.1309 87.6391 16.6349C88.0731 17.1389 88.6051 17.5309 89.2351 17.8109C89.8791 18.0909 90.6351 18.2309 91.5031 18.2309C92.7351 18.2309 93.7571 17.9229 94.5691 17.3069C95.3811 16.6909 95.9061 15.7739 96.1441 14.5559Z" fill="black"/>
<path d="M98.0993 7.14286V17.9999H99.8843V13.1699C99.8843 12.4699 99.9544 11.8539 100.094 11.3219C100.234 10.7759 100.458 10.3139 100.766 9.93586C101.074 9.55786 101.48 9.27086 101.984 9.07486C102.488 8.87886 103.097 8.78086 103.811 8.78086V6.89086C102.845 6.86286 102.047 7.05886 101.417 7.47886C100.787 7.89886 100.255 8.54986 99.8214 9.43186H99.7794V7.14286H98.0993Z" fill="black"/>
<path fill-rule="evenodd" clip-rule="evenodd" d="M0 11.9914C0 5.37872 5.37446 0 12.0184 0C18.6255 0 24 5.34337 24 11.9914C24 18.604 18.6255 24 12.0184 24C5.37446 24 0 18.604 0 11.9914ZM14.363 16.1528C13.4943 16.1528 12.9483 15.7788 12.9483 14.6967V11.0868H15.4948V8.47803H12.9483V4.91849H10.7657C10.6648 6.4859 9.78537 8.2959 7.68392 8.84215V11.0868H9.59266V15.2325C9.59266 17.8213 11.1588 18.9035 13.2618 18.9035H15.5957V16.1528H14.363Z" fill="black"/>
</svg>
