<svg width="135" height="24" viewBox="0 0 135 24" fill="none" xmlns="http://www.w3.org/2000/svg">
<path d="M43.7227 3.00586V17.9999H45.7177V3.00586H43.7227Z" fill="black"/>
<path d="M48.7792 7.14286V17.9999H50.5642V11.8679C50.5642 11.3779 50.6272 10.9299 50.7532 10.5239C50.8932 10.1039 51.0962 9.73986 51.3622 9.43186C51.6282 9.12386 51.9572 8.88586 52.3492 8.71786C52.7552 8.54986 53.2312 8.46586 53.7772 8.46586C54.4632 8.46586 55.0022 8.66186 55.3942 9.05386C55.7862 9.44586 55.9822 9.97786 55.9822 10.6499V17.9999H57.7672V10.8599C57.7672 10.2719 57.7042 9.73986 57.5782 9.26386C57.4662 8.77386 57.2632 8.35386 56.9692 8.00386C56.6752 7.65386 56.2902 7.38086 55.8142 7.18486C55.3382 6.98886 54.7432 6.89086 54.0292 6.89086C52.4192 6.89086 51.2432 7.54886 50.5012 8.86486H50.4592V7.14286H48.7792Z" fill="black"/>
<path d="M61.5402 14.5769H59.7552C59.7832 15.2489 59.9232 15.8229 60.1752 16.2989C60.4272 16.7609 60.7632 17.1389 61.1832 17.4329C61.6032 17.7129 62.0862 17.9159 62.6322 18.0419C63.1782 18.1679 63.7522 18.2309 64.3542 18.2309C64.9002 18.2309 65.4462 18.1749 65.9922 18.0629C66.5522 17.9649 67.0492 17.7829 67.4832 17.5169C67.9312 17.2509 68.2882 16.9009 68.5542 16.4669C68.8342 16.0329 68.9742 15.4869 68.9742 14.8289C68.9742 14.3109 68.8692 13.8769 68.6592 13.5269C68.4632 13.1769 68.1972 12.8899 67.8612 12.6659C67.5392 12.4279 67.1612 12.2389 66.7272 12.0989C66.3072 11.9589 65.8732 11.8399 65.4252 11.7419C65.0052 11.6439 64.5852 11.5529 64.1652 11.4689C63.7452 11.3709 63.3672 11.2589 63.0312 11.1329C62.6952 10.9929 62.4152 10.8249 62.1912 10.6289C61.9812 10.4189 61.8762 10.1599 61.8762 9.85186C61.8762 9.57186 61.9462 9.34786 62.0862 9.17986C62.2262 8.99786 62.4082 8.85786 62.6322 8.75986C62.8562 8.64786 63.1012 8.57086 63.3672 8.52886C63.6472 8.48686 63.9202 8.46586 64.1862 8.46586C64.4802 8.46586 64.7672 8.50086 65.0472 8.57086C65.3412 8.62686 65.6072 8.72486 65.8452 8.86486C66.0832 9.00486 66.2792 9.19386 66.4332 9.43186C66.5872 9.65586 66.6782 9.94286 66.7062 10.2929H68.4912C68.4492 9.63486 68.3092 9.08886 68.0712 8.65486C67.8332 8.20686 67.5112 7.85686 67.1052 7.60486C66.7132 7.33886 66.2582 7.15686 65.7402 7.05886C65.2222 6.94686 64.6552 6.89086 64.0392 6.89086C63.5632 6.89086 63.0802 6.95386 62.5902 7.07986C62.1142 7.19186 61.6802 7.37386 61.2882 7.62586C60.9102 7.86386 60.5952 8.17886 60.3432 8.57086C60.1052 8.96286 59.9862 9.43186 59.9862 9.97786C59.9862 10.6779 60.1612 11.2239 60.5112 11.6159C60.8612 12.0079 61.2952 12.3159 61.8132 12.5399C62.3452 12.7499 62.9192 12.9179 63.5352 13.0439C64.1512 13.1559 64.7182 13.2889 65.2362 13.4429C65.7682 13.5829 66.2092 13.7719 66.5592 14.0099C66.9092 14.2479 67.0842 14.5979 67.0842 15.0599C67.0842 15.3959 67.0002 15.6759 66.8322 15.8999C66.6642 16.1099 66.4472 16.2709 66.1812 16.3829C65.9292 16.4949 65.6492 16.5719 65.3412 16.6139C65.0332 16.6559 64.7392 16.6769 64.4592 16.6769C64.0952 16.6769 63.7382 16.6419 63.3882 16.5719C63.0522 16.5019 62.7442 16.3899 62.4642 16.2359C62.1982 16.0679 61.9812 15.8509 61.8132 15.5849C61.6452 15.3049 61.5542 14.9689 61.5402 14.5769Z" fill="black"/>
<path d="M73.4262 7.14286V3.88786H71.6412V7.14286H69.7932V8.71786H71.6412V15.6269C71.6412 16.1309 71.6902 16.5369 71.7882 16.8449C71.8862 17.1529 72.0332 17.3909 72.2292 17.5589C72.4392 17.7269 72.7052 17.8459 73.0272 17.9159C73.3632 17.9719 73.7622 17.9999 74.2242 17.9999H75.5892V16.4249H74.7702C74.4902 16.4249 74.2592 16.4179 74.0772 16.4039C73.9092 16.3759 73.7762 16.3269 73.6782 16.2569C73.5802 16.1869 73.5102 16.0889 73.4682 15.9629C73.4402 15.8369 73.4262 15.6689 73.4262 15.4589V8.71786H75.5892V7.14286H73.4262Z" fill="black"/>
<path d="M87.1902 17.9579C86.8822 18.1399 86.4552 18.2309 85.9092 18.2309C85.4472 18.2309 85.0762 18.1049 84.7962 17.8529C84.5302 17.5869 84.3972 17.1599 84.3972 16.5719C83.9072 17.1599 83.3332 17.5869 82.6752 17.8529C82.0312 18.1049 81.3312 18.2309 80.5752 18.2309C80.0852 18.2309 79.6162 18.1749 79.1682 18.0629C78.7342 17.9509 78.3562 17.7759 78.0342 17.5379C77.7122 17.2999 77.4532 16.9919 77.2572 16.6139C77.0752 16.2219 76.9842 15.7529 76.9842 15.2069C76.9842 14.5909 77.0892 14.0869 77.2992 13.6949C77.5092 13.3029 77.7822 12.9879 78.1182 12.7499C78.4682 12.4979 78.8602 12.3089 79.2942 12.1829C79.7422 12.0569 80.1972 11.9519 80.6592 11.8679C81.1492 11.7699 81.6112 11.6999 82.0452 11.6579C82.4932 11.6019 82.8852 11.5319 83.2212 11.4479C83.5572 11.3499 83.8232 11.2169 84.0192 11.0489C84.2152 10.8669 84.3132 10.6079 84.3132 10.2719C84.3132 9.87986 84.2362 9.56486 84.0822 9.32686C83.9422 9.08886 83.7532 8.90686 83.5152 8.78086C83.2912 8.65486 83.0322 8.57086 82.7382 8.52886C82.4582 8.48686 82.1782 8.46586 81.8982 8.46586C81.1422 8.46586 80.5122 8.61286 80.0082 8.90686C79.5042 9.18686 79.2312 9.72586 79.1892 10.5239H77.4042C77.4322 9.85186 77.5722 9.28486 77.8242 8.82286C78.0762 8.36086 78.4122 7.98986 78.8322 7.70986C79.2522 7.41586 79.7282 7.20586 80.2602 7.07986C80.8062 6.95386 81.3872 6.89086 82.0032 6.89086C82.4932 6.89086 82.9762 6.92586 83.4522 6.99586C83.9422 7.06586 84.3832 7.21286 84.7752 7.43686C85.1672 7.64686 85.4822 7.94786 85.7202 8.33986C85.9582 8.73186 86.0772 9.24286 86.0772 9.87286V15.4589C86.0772 15.8789 86.0982 16.1869 86.1402 16.3829C86.1962 16.5789 86.3642 16.6769 86.6442 16.6769C86.7982 16.6769 86.9802 16.6419 87.1902 16.5719V17.9579ZM84.2922 12.3929C84.0682 12.5609 83.7742 12.6869 83.4102 12.7709C83.0462 12.8409 82.6612 12.9039 82.2552 12.9599C81.8632 13.0019 81.4642 13.0579 81.0582 13.1279C80.6522 13.1839 80.2882 13.2819 79.9662 13.4219C79.6442 13.5619 79.3782 13.7649 79.1682 14.0309C78.9722 14.2829 78.8742 14.6329 78.8742 15.0809C78.8742 15.3749 78.9302 15.6269 79.0422 15.8369C79.1682 16.0329 79.3222 16.1939 79.5042 16.3199C79.7002 16.4459 79.9242 16.5369 80.1762 16.5929C80.4282 16.6489 80.6942 16.6769 80.9742 16.6769C81.5622 16.6769 82.0662 16.5999 82.4862 16.4459C82.9062 16.2779 83.2492 16.0749 83.5152 15.8369C83.7812 15.5849 83.9772 15.3189 84.1032 15.0389C84.2292 14.7449 84.2922 14.4719 84.2922 14.2199V12.3929Z" fill="black"/>
<path d="M98.2175 17.0759V7.14286H96.5375V8.69686H96.5165C96.1945 8.09486 95.7465 7.64686 95.1725 7.35286C94.5985 7.04486 93.9685 6.89086 93.2825 6.89086C92.3445 6.89086 91.5535 7.07286 90.9095 7.43686C90.2655 7.78686 89.7475 8.24186 89.3555 8.80186C88.9635 9.34786 88.6835 9.96386 88.5155 10.6499C88.3475 11.3219 88.2635 11.9799 88.2635 12.6239C88.2635 13.3659 88.3615 14.0729 88.5575 14.7449C88.7675 15.4029 89.0755 15.9839 89.4815 16.4879C89.8875 16.9779 90.3915 17.3699 90.9935 17.6639C91.5955 17.9579 92.3025 18.1049 93.1145 18.1049C93.8145 18.1049 94.4725 17.9509 95.0885 17.6429C95.7185 17.3209 96.1875 16.8239 96.4955 16.1519H96.5375V16.8659C96.5375 17.4679 96.4745 18.0209 96.3485 18.5249C96.2365 19.0289 96.0475 19.4559 95.7815 19.8059C95.5155 20.1699 95.1795 20.4499 94.7735 20.6459C94.3675 20.8559 93.8705 20.9609 93.2825 20.9609C92.9885 20.9609 92.6805 20.9259 92.3585 20.8559C92.0365 20.7999 91.7355 20.7019 91.4555 20.5619C91.1895 20.4219 90.9585 20.2399 90.7625 20.0159C90.5805 19.7919 90.4825 19.5189 90.4685 19.1969H88.6835C88.7115 19.7849 88.8655 20.2819 89.1455 20.6879C89.4255 21.0939 89.7755 21.4229 90.1955 21.6749C90.6295 21.9269 91.1055 22.1089 91.6235 22.2209C92.1555 22.3329 92.6735 22.3889 93.1775 22.3889C94.9135 22.3889 96.1875 21.9479 96.9995 21.0659C97.8115 20.1839 98.2175 18.8539 98.2175 17.0759ZM93.2195 16.5509C92.6315 16.5509 92.1415 16.4319 91.7495 16.1939C91.3575 15.9419 91.0425 15.6199 90.8045 15.2279C90.5665 14.8219 90.3985 14.3739 90.3005 13.8839C90.2025 13.3939 90.1535 12.9039 90.1535 12.4139C90.1535 11.8959 90.2095 11.3989 90.3215 10.9229C90.4475 10.4469 90.6365 10.0269 90.8885 9.66286C91.1545 9.29886 91.4905 9.01186 91.8965 8.80186C92.3025 8.57786 92.7925 8.46586 93.3665 8.46586C93.9265 8.46586 94.4025 8.57786 94.7945 8.80186C95.1865 9.02586 95.5015 9.32686 95.7395 9.70486C95.9915 10.0689 96.1735 10.4819 96.2855 10.9439C96.3975 11.4059 96.4535 11.8749 96.4535 12.3509C96.4535 12.8549 96.3905 13.3589 96.2645 13.8629C96.1525 14.3669 95.9705 14.8219 95.7185 15.2279C95.4665 15.6199 95.1305 15.9419 94.7105 16.1939C94.3045 16.4319 93.8075 16.5509 93.2195 16.5509Z" fill="black"/>
<path d="M100.847 7.14286V17.9999H102.632V13.1699C102.632 12.4699 102.702 11.8539 102.842 11.3219C102.982 10.7759 103.206 10.3139 103.514 9.93586C103.822 9.55786 104.228 9.27086 104.732 9.07486C105.236 8.87886 105.845 8.78086 106.559 8.78086V6.89086C105.593 6.86286 104.795 7.05886 104.165 7.47886C103.535 7.89886 103.003 8.54986 102.569 9.43186H102.527V7.14286H100.847Z" fill="black"/>
<path d="M117.521 17.9579C117.213 18.1399 116.786 18.2309 116.24 18.2309C115.778 18.2309 115.407 18.1049 115.127 17.8529C114.861 17.5869 114.728 17.1599 114.728 16.5719C114.238 17.1599 113.664 17.5869 113.006 17.8529C112.362 18.1049 111.662 18.2309 110.906 18.2309C110.416 18.2309 109.947 18.1749 109.499 18.0629C109.065 17.9509 108.687 17.7759 108.365 17.5379C108.043 17.2999 107.784 16.9919 107.588 16.6139C107.406 16.2219 107.315 15.7529 107.315 15.2069C107.315 14.5909 107.42 14.0869 107.63 13.6949C107.84 13.3029 108.113 12.9879 108.449 12.7499C108.799 12.4979 109.191 12.3089 109.625 12.1829C110.073 12.0569 110.528 11.9519 110.99 11.8679C111.48 11.7699 111.942 11.6999 112.376 11.6579C112.824 11.6019 113.216 11.5319 113.552 11.4479C113.888 11.3499 114.154 11.2169 114.35 11.0489C114.546 10.8669 114.644 10.6079 114.644 10.2719C114.644 9.87986 114.567 9.56486 114.413 9.32686C114.273 9.08886 114.084 8.90686 113.846 8.78086C113.622 8.65486 113.363 8.57086 113.069 8.52886C112.789 8.48686 112.509 8.46586 112.229 8.46586C111.473 8.46586 110.843 8.61286 110.339 8.90686C109.835 9.18686 109.562 9.72586 109.52 10.5239H107.735C107.763 9.85186 107.903 9.28486 108.155 8.82286C108.407 8.36086 108.743 7.98986 109.163 7.70986C109.583 7.41586 110.059 7.20586 110.591 7.07986C111.137 6.95386 111.718 6.89086 112.334 6.89086C112.824 6.89086 113.307 6.92586 113.783 6.99586C114.273 7.06586 114.714 7.21286 115.106 7.43686C115.498 7.64686 115.813 7.94786 116.051 8.33986C116.289 8.73186 116.408 9.24286 116.408 9.87286V15.4589C116.408 15.8789 116.429 16.1869 116.471 16.3829C116.527 16.5789 116.695 16.6769 116.975 16.6769C117.129 16.6769 117.311 16.6419 117.521 16.5719V17.9579ZM114.623 12.3929C114.399 12.5609 114.105 12.6869 113.741 12.7709C113.377 12.8409 112.992 12.9039 112.586 12.9599C112.194 13.0019 111.795 13.0579 111.389 13.1279C110.983 13.1839 110.619 13.2819 110.297 13.4219C109.975 13.5619 109.709 13.7649 109.499 14.0309C109.303 14.2829 109.205 14.6329 109.205 15.0809C109.205 15.3749 109.261 15.6269 109.373 15.8369C109.499 16.0329 109.653 16.1939 109.835 16.3199C110.031 16.4459 110.255 16.5369 110.507 16.5929C110.759 16.6489 111.025 16.6769 111.305 16.6769C111.893 16.6769 112.397 16.5999 112.817 16.4459C113.237 16.2779 113.58 16.0749 113.846 15.8369C114.112 15.5849 114.308 15.3189 114.434 15.0389C114.56 14.7449 114.623 14.4719 114.623 14.2199V12.3929Z" fill="black"/>
<path d="M119.183 7.14286V17.9999H120.968V11.2379C120.968 11.0279 121.017 10.7689 121.115 10.4609C121.227 10.1389 121.395 9.83086 121.619 9.53686C121.857 9.24286 122.158 8.99086 122.522 8.78086C122.9 8.57086 123.348 8.46586 123.866 8.46586C124.272 8.46586 124.601 8.52886 124.853 8.65486C125.119 8.76686 125.329 8.93486 125.483 9.15886C125.637 9.36886 125.742 9.62086 125.798 9.91486C125.868 10.2089 125.903 10.5309 125.903 10.8809V17.9999H127.688V11.2379C127.688 10.3979 127.94 9.72586 128.444 9.22186C128.948 8.71786 129.641 8.46586 130.523 8.46586C130.957 8.46586 131.307 8.52886 131.573 8.65486C131.853 8.78086 132.07 8.95586 132.224 9.17986C132.378 9.38986 132.483 9.64186 132.539 9.93586C132.595 10.2299 132.623 10.5449 132.623 10.8809V17.9999H134.408V10.0409C134.408 9.48086 134.317 9.00486 134.135 8.61286C133.967 8.20686 133.722 7.87786 133.4 7.62586C133.092 7.37386 132.714 7.19186 132.266 7.07986C131.832 6.95386 131.342 6.89086 130.796 6.89086C130.082 6.89086 129.424 7.05186 128.822 7.37386C128.234 7.69586 127.758 8.15086 127.394 8.73886C127.17 8.06686 126.785 7.59086 126.239 7.31086C125.693 7.03086 125.084 6.89086 124.412 6.89086C122.886 6.89086 121.717 7.50686 120.905 8.73886H120.863V7.14286H119.183Z" fill="black"/>
<path fill-rule="evenodd" clip-rule="evenodd" d="M7.05241 0.0722132C8.33234 0.013814 8.741 0 12 0C15.259 0 15.6677 0.013814 16.9476 0.0722132C18.2248 0.13047 19.0972 0.333343 19.8605 0.630008C20.6496 0.936629 21.3188 1.34695 21.9859 2.01406C22.6531 2.68123 23.0634 3.35044 23.37 4.13954C23.6667 4.90283 23.8695 5.77516 23.9278 7.05241C23.9862 8.33234 24 8.741 24 12C24 15.259 23.9862 15.6677 23.9278 16.9476C23.8695 18.2248 23.6667 19.0972 23.37 19.8605C23.0634 20.6496 22.6531 21.3188 21.9859 21.9859C21.3188 22.6531 20.6496 23.0634 19.8605 23.37C19.0972 23.6667 18.2248 23.8695 16.9476 23.9278C15.6677 23.9862 15.259 24 12 24C8.741 24 8.33234 23.9862 7.05241 23.9278C5.77516 23.8695 4.90283 23.6667 4.13954 23.37C3.35044 23.0634 2.68123 22.6531 2.01406 21.9859C1.34695 21.3188 0.936629 20.6496 0.630008 19.8605C0.333343 19.0972 0.13047 18.2248 0.0722132 16.9476C0.013814 15.6677 0 15.259 0 12C0 8.741 0.013814 8.33234 0.0722132 7.05241C0.13047 5.77516 0.333343 4.90283 0.630008 4.13954C0.936629 3.35044 1.34695 2.68123 2.01406 2.01406C2.68123 1.34695 3.35044 0.936629 4.13954 0.630008C4.90283 0.333343 5.77516 0.13047 7.05241 0.0722132ZM19.0773 2.64531C18.6544 2.48097 18.019 2.28548 16.849 2.23213C15.5837 2.1744 15.2041 2.16216 12 2.16216C8.79587 2.16216 8.41632 2.1744 7.15097 2.23213C5.98098 2.28548 5.34559 2.48097 4.92274 2.64531C4.36261 2.863 3.96287 3.12303 3.54297 3.54297C3.12303 3.96287 2.863 4.36261 2.64531 4.92274C2.48097 5.34559 2.28548 5.98098 2.23213 7.15097C2.1744 8.41632 2.16216 8.79587 2.16216 12C2.16216 15.2041 2.1744 15.5837 2.23213 16.849C2.28548 18.019 2.48097 18.6544 2.64531 19.0773C2.863 19.6374 3.12308 20.0371 3.54297 20.457C3.96287 20.877 4.36261 21.137 4.92274 21.3547C5.34559 21.519 5.98098 21.7145 7.15097 21.7679C8.41618 21.8256 8.79563 21.8378 12 21.8378C15.2044 21.8378 15.5839 21.8256 16.849 21.7679C18.019 21.7145 18.6544 21.519 19.0773 21.3547C19.6374 21.137 20.0371 20.877 20.457 20.457C20.877 20.0371 21.137 19.6374 21.3547 19.0773C21.519 18.6544 21.7145 18.019 21.7679 16.849C21.8256 15.5837 21.8378 15.2041 21.8378 12C21.8378 8.79587 21.8256 8.41632 21.7679 7.15097C21.7145 5.98098 21.519 5.34559 21.3547 4.92274C21.137 4.36261 20.877 3.96287 20.457 3.54297C20.0371 3.12303 19.6374 2.863 19.0773 2.64531ZM12 5.83784C8.59671 5.83784 5.83784 8.59671 5.83784 12C5.83784 15.4033 8.59671 18.1622 12 18.1622C15.4033 18.1622 18.1622 15.4033 18.1622 12C18.1622 8.59671 15.4033 5.83784 12 5.83784ZM8 12C8 14.2091 9.79085 16 12 16C14.2091 16 16 14.2091 16 12C16 9.79085 14.2091 8 12 8C9.79085 8 8 9.79085 8 12ZM18.4056 7.03436C19.2009 7.03436 19.8456 6.38968 19.8456 5.59438C19.8456 4.79909 19.2009 4.15436 18.4056 4.15436C17.6104 4.15436 16.9656 4.79909 16.9656 5.59438C16.9656 6.38968 17.6104 7.03436 18.4056 7.03436Z" fill="black"/>
</svg>
