<svg width="136" height="24" viewBox="0 0 136 24" fill="none" xmlns="http://www.w3.org/2000/svg">
<path d="M43.6367 3.00586V17.9999H45.6317V11.1329H52.5197V9.45286H45.6317V4.68586H53.4857V3.00586H43.6367Z" fill="black"/>
<path d="M65.0193 17.9579C64.7113 18.1399 64.2843 18.2309 63.7383 18.2309C63.2763 18.2309 62.9053 18.1049 62.6253 17.8529C62.3593 17.5869 62.2263 17.1599 62.2263 16.5719C61.7363 17.1599 61.1623 17.5869 60.5043 17.8529C59.8603 18.1049 59.1603 18.2309 58.4043 18.2309C57.9143 18.2309 57.4453 18.1749 56.9973 18.0629C56.5633 17.9509 56.1853 17.7759 55.8633 17.5379C55.5413 17.2999 55.2823 16.9919 55.0863 16.6139C54.9043 16.2219 54.8133 15.7529 54.8133 15.2069C54.8133 14.5909 54.9183 14.0869 55.1283 13.6949C55.3383 13.3029 55.6113 12.9879 55.9473 12.7499C56.2973 12.4979 56.6893 12.3089 57.1233 12.1829C57.5713 12.0569 58.0263 11.9519 58.4883 11.8679C58.9783 11.7699 59.4403 11.6999 59.8743 11.6579C60.3223 11.6019 60.7143 11.5319 61.0503 11.4479C61.3863 11.3499 61.6523 11.2169 61.8483 11.0489C62.0443 10.8669 62.1423 10.6079 62.1423 10.2719C62.1423 9.87986 62.0653 9.56486 61.9113 9.32686C61.7713 9.08886 61.5823 8.90686 61.3443 8.78086C61.1203 8.65486 60.8613 8.57086 60.5673 8.52886C60.2873 8.48686 60.0073 8.46586 59.7273 8.46586C58.9713 8.46586 58.3413 8.61286 57.8373 8.90686C57.3333 9.18686 57.0603 9.72586 57.0183 10.5239H55.2333C55.2613 9.85186 55.4013 9.28486 55.6533 8.82286C55.9053 8.36086 56.2413 7.98986 56.6613 7.70986C57.0813 7.41586 57.5573 7.20586 58.0893 7.07986C58.6353 6.95386 59.2163 6.89086 59.8323 6.89086C60.3223 6.89086 60.8053 6.92586 61.2813 6.99586C61.7713 7.06586 62.2123 7.21286 62.6043 7.43686C62.9963 7.64686 63.3113 7.94786 63.5493 8.33986C63.7873 8.73186 63.9063 9.24286 63.9063 9.87286V15.4589C63.9063 15.8789 63.9273 16.1869 63.9693 16.3829C64.0253 16.5789 64.1933 16.6769 64.4733 16.6769C64.6273 16.6769 64.8093 16.6419 65.0193 16.5719V17.9579ZM62.1213 12.3929C61.8973 12.5609 61.6033 12.6869 61.2393 12.7709C60.8753 12.8409 60.4903 12.9039 60.0843 12.9599C59.6923 13.0019 59.2933 13.0579 58.8873 13.1279C58.4813 13.1839 58.1173 13.2819 57.7953 13.4219C57.4733 13.5619 57.2073 13.7649 56.9973 14.0309C56.8013 14.2829 56.7033 14.6329 56.7033 15.0809C56.7033 15.3749 56.7593 15.6269 56.8713 15.8369C56.9973 16.0329 57.1513 16.1939 57.3333 16.3199C57.5293 16.4459 57.7533 16.5369 58.0053 16.5929C58.2573 16.6489 58.5233 16.6769 58.8033 16.6769C59.3913 16.6769 59.8953 16.5999 60.3153 16.4459C60.7353 16.2779 61.0783 16.0749 61.3443 15.8369C61.6103 15.5849 61.8063 15.3189 61.9323 15.0389C62.0583 14.7449 62.1213 14.4719 62.1213 14.2199V12.3929Z" fill="black"/>
<path d="M74.0516 10.6289H75.8996C75.8296 9.98486 75.6616 9.43186 75.3956 8.96986C75.1296 8.49386 74.7866 8.10186 74.3666 7.79386C73.9606 7.48586 73.4846 7.26186 72.9386 7.12186C72.4066 6.96786 71.8326 6.89086 71.2166 6.89086C70.3626 6.89086 69.6136 7.04486 68.9696 7.35286C68.3256 7.64686 67.7866 8.05986 67.3526 8.59186C66.9326 9.10986 66.6176 9.72586 66.4076 10.4399C66.1976 11.1399 66.0926 11.8959 66.0926 12.7079C66.0926 13.5199 66.1976 14.2689 66.4076 14.9549C66.6316 15.6269 66.9536 16.2079 67.3736 16.6979C67.8076 17.1879 68.3396 17.5659 68.9696 17.8319C69.6136 18.0979 70.3486 18.2309 71.1746 18.2309C72.5606 18.2309 73.6526 17.8669 74.4506 17.1389C75.2626 16.4109 75.7666 15.3749 75.9626 14.0309H74.1356C74.0236 14.8709 73.7156 15.5219 73.2116 15.9839C72.7216 16.4459 72.0356 16.6769 71.1536 16.6769C70.5936 16.6769 70.1106 16.5649 69.7046 16.3409C69.2986 16.1169 68.9696 15.8229 68.7176 15.4589C68.4656 15.0809 68.2766 14.6539 68.1506 14.1779C68.0386 13.7019 67.9826 13.2119 67.9826 12.7079C67.9826 12.1619 68.0386 11.6369 68.1506 11.1329C68.2626 10.6149 68.4446 10.1599 68.6966 9.76786C68.9626 9.37586 69.3126 9.06086 69.7466 8.82286C70.1806 8.58486 70.7196 8.46586 71.3636 8.46586C72.1196 8.46586 72.7216 8.65486 73.1696 9.03286C73.6176 9.41086 73.9116 9.94286 74.0516 10.6289Z" fill="black"/>
<path d="M85.4989 11.5319H79.2619C79.2899 11.1119 79.3809 10.7199 79.5349 10.3559C79.6889 9.97786 79.8989 9.64886 80.1649 9.36886C80.4309 9.08886 80.7459 8.87186 81.1099 8.71786C81.4879 8.54986 81.9079 8.46586 82.3699 8.46586C82.8179 8.46586 83.2239 8.54986 83.5879 8.71786C83.9659 8.87186 84.2879 9.08886 84.5539 9.36886C84.8339 9.63486 85.0509 9.95686 85.2049 10.3349C85.3729 10.7129 85.4709 11.1119 85.4989 11.5319ZM87.2209 14.5559H85.4569C85.3029 15.2699 84.9809 15.8019 84.4909 16.1519C84.0149 16.5019 83.3989 16.6769 82.6429 16.6769C82.0549 16.6769 81.5439 16.5789 81.1099 16.3829C80.6759 16.1869 80.3189 15.9279 80.0389 15.6059C79.7589 15.2699 79.5559 14.8919 79.4299 14.4719C79.3039 14.0379 79.2479 13.5829 79.2619 13.1069H87.3889C87.4169 12.4489 87.3539 11.7559 87.1999 11.0279C87.0599 10.2999 86.7939 9.62786 86.4019 9.01186C86.0239 8.39586 85.5129 7.89186 84.8689 7.49986C84.2389 7.09386 83.4409 6.89086 82.4749 6.89086C81.7329 6.89086 81.0469 7.03086 80.4169 7.31086C79.8009 7.59086 79.2619 7.98286 78.7999 8.48686C78.3519 8.99086 78.0019 9.58586 77.7499 10.2719C77.4979 10.9579 77.3719 11.7139 77.3719 12.5399C77.3999 13.3659 77.5189 14.1289 77.7289 14.8289C77.9529 15.5289 78.2819 16.1309 78.7159 16.6349C79.1499 17.1389 79.6819 17.5309 80.3119 17.8109C80.9559 18.0909 81.7119 18.2309 82.5799 18.2309C83.8119 18.2309 84.8339 17.9229 85.6459 17.3069C86.4579 16.6909 86.9829 15.7739 87.2209 14.5559Z" fill="black"/>
<path d="M89.3022 3.00586V17.9999H91.0872V16.5509H91.1292C91.3252 16.8729 91.5632 17.1459 91.8432 17.3699C92.1372 17.5799 92.4452 17.7479 92.7672 17.8739C93.0892 17.9999 93.4112 18.0909 93.7332 18.1469C94.0692 18.2029 94.3702 18.2309 94.6362 18.2309C95.4622 18.2309 96.1832 18.0839 96.7992 17.7899C97.4292 17.4959 97.9472 17.0969 98.3532 16.5929C98.7732 16.0749 99.0812 15.4729 99.2772 14.7869C99.4872 14.1009 99.5922 13.3729 99.5922 12.6029C99.5922 11.8329 99.4872 11.1049 99.2772 10.4189C99.0672 9.73286 98.7522 9.13086 98.3322 8.61286C97.9262 8.08086 97.4082 7.66086 96.7782 7.35286C96.1622 7.04486 95.4342 6.89086 94.5942 6.89086C93.8382 6.89086 93.1452 7.03086 92.5152 7.31086C91.8852 7.57686 91.4232 8.01086 91.1292 8.61286H91.0872V3.00586H89.3022ZM97.7022 12.4769C97.7022 13.0089 97.6462 13.5269 97.5342 14.0309C97.4222 14.5349 97.2402 14.9829 96.9882 15.3749C96.7362 15.7669 96.4002 16.0819 95.9802 16.3199C95.5742 16.5579 95.0632 16.6769 94.4472 16.6769C93.8312 16.6769 93.3062 16.5649 92.8722 16.3409C92.4382 16.1029 92.0812 15.7949 91.8012 15.4169C91.5352 15.0389 91.3392 14.6049 91.2132 14.1149C91.0872 13.6109 91.0242 13.0929 91.0242 12.5609C91.0242 12.0569 91.0802 11.5599 91.1922 11.0699C91.3182 10.5799 91.5142 10.1459 91.7802 9.76786C92.0462 9.37586 92.3892 9.06086 92.8092 8.82286C93.2292 8.58486 93.7402 8.46586 94.3422 8.46586C94.9162 8.46586 95.4132 8.57786 95.8332 8.80186C96.2672 9.02586 96.6172 9.32686 96.8832 9.70486C97.1632 10.0829 97.3662 10.5169 97.4922 11.0069C97.6322 11.4829 97.7022 11.9729 97.7022 12.4769Z" fill="black"/>
<path d="M102.989 12.5819C102.989 11.9239 103.073 11.3429 103.241 10.8389C103.423 10.3209 103.668 9.88686 103.976 9.53686C104.284 9.18686 104.641 8.92086 105.047 8.73886C105.467 8.55686 105.908 8.46586 106.37 8.46586C106.832 8.46586 107.266 8.55686 107.672 8.73886C108.092 8.92086 108.456 9.18686 108.764 9.53686C109.072 9.88686 109.31 10.3209 109.478 10.8389C109.66 11.3429 109.751 11.9239 109.751 12.5819C109.751 13.2399 109.66 13.8279 109.478 14.3459C109.31 14.8499 109.072 15.2769 108.764 15.6269C108.456 15.9629 108.092 16.2219 107.672 16.4039C107.266 16.5859 106.832 16.6769 106.37 16.6769C105.908 16.6769 105.467 16.5859 105.047 16.4039C104.641 16.2219 104.284 15.9629 103.976 15.6269C103.668 15.2769 103.423 14.8499 103.241 14.3459C103.073 13.8279 102.989 13.2399 102.989 12.5819ZM101.099 12.5819C101.099 13.3799 101.211 14.1219 101.435 14.8079C101.659 15.4939 101.995 16.0959 102.443 16.6139C102.891 17.1179 103.444 17.5169 104.102 17.8109C104.76 18.0909 105.516 18.2309 106.37 18.2309C107.238 18.2309 107.994 18.0909 108.638 17.8109C109.296 17.5169 109.849 17.1179 110.297 16.6139C110.745 16.0959 111.081 15.4939 111.305 14.8079C111.529 14.1219 111.641 13.3799 111.641 12.5819C111.641 11.7839 111.529 11.0419 111.305 10.3559C111.081 9.65586 110.745 9.05386 110.297 8.54986C109.849 8.03186 109.296 7.62586 108.638 7.33186C107.994 7.03786 107.238 6.89086 106.37 6.89086C105.516 6.89086 104.76 7.03786 104.102 7.33186C103.444 7.62586 102.891 8.03186 102.443 8.54986C101.995 9.05386 101.659 9.65586 101.435 10.3559C101.211 11.0419 101.099 11.7839 101.099 12.5819Z" fill="black"/>
<path d="M115.048 12.5819C115.048 11.9239 115.132 11.3429 115.3 10.8389C115.482 10.3209 115.727 9.88686 116.035 9.53686C116.343 9.18686 116.7 8.92086 117.106 8.73886C117.526 8.55686 117.967 8.46586 118.429 8.46586C118.891 8.46586 119.325 8.55686 119.731 8.73886C120.151 8.92086 120.515 9.18686 120.823 9.53686C121.131 9.88686 121.369 10.3209 121.537 10.8389C121.719 11.3429 121.81 11.9239 121.81 12.5819C121.81 13.2399 121.719 13.8279 121.537 14.3459C121.369 14.8499 121.131 15.2769 120.823 15.6269C120.515 15.9629 120.151 16.2219 119.731 16.4039C119.325 16.5859 118.891 16.6769 118.429 16.6769C117.967 16.6769 117.526 16.5859 117.106 16.4039C116.7 16.2219 116.343 15.9629 116.035 15.6269C115.727 15.2769 115.482 14.8499 115.3 14.3459C115.132 13.8279 115.048 13.2399 115.048 12.5819ZM113.158 12.5819C113.158 13.3799 113.27 14.1219 113.494 14.8079C113.718 15.4939 114.054 16.0959 114.502 16.6139C114.95 17.1179 115.503 17.5169 116.161 17.8109C116.819 18.0909 117.575 18.2309 118.429 18.2309C119.297 18.2309 120.053 18.0909 120.697 17.8109C121.355 17.5169 121.908 17.1179 122.356 16.6139C122.804 16.0959 123.14 15.4939 123.364 14.8079C123.588 14.1219 123.7 13.3799 123.7 12.5819C123.7 11.7839 123.588 11.0419 123.364 10.3559C123.14 9.65586 122.804 9.05386 122.356 8.54986C121.908 8.03186 121.355 7.62586 120.697 7.33186C120.053 7.03786 119.297 6.89086 118.429 6.89086C117.575 6.89086 116.819 7.03786 116.161 7.33186C115.503 7.62586 114.95 8.03186 114.502 8.54986C114.054 9.05386 113.718 9.65586 113.494 10.3559C113.27 11.0419 113.158 11.7839 113.158 12.5819Z" fill="black"/>
<path d="M125.91 3.00586V17.9999H127.695V13.8839L129.375 12.3299L133.092 17.9999H135.36L130.74 11.0909L135.045 7.14286H132.651L127.695 11.8889V3.00586H125.91Z" fill="black"/>
<path fill-rule="evenodd" clip-rule="evenodd" d="M22.6759 0H1.32414C0.592837 0 0 0.592837 0 1.32414V22.6759C0 23.4072 0.592837 24 1.32414 24H12.8276V14.7186H9.70345V11.0855H12.8276V8.41241C12.8276 5.3131 14.7228 3.62483 17.4869 3.62483C18.4184 3.6228 19.3493 3.66976 20.2759 3.76552V7.00552H18.3724C16.8662 7.00552 16.5724 7.71724 16.5724 8.76828V11.0814H20.1724L19.7048 14.7145H16.5517V24H22.6759C23.4072 24 24 23.4072 24 22.6759V1.32414C24 0.592837 23.4072 0 22.6759 0Z" fill="black"/>
</svg>
